<svg width="740" height="360" viewBox="0 0 740 360" fill="none" xmlns="http://www.w3.org/2000/svg">
  <defs>
    <linearGradient id="bg" x1="370" y1="0" x2="370" y2="360" gradientUnits="userSpaceOnUse">
      <stop stop-color="#34445A"/>
      <stop offset="1" stop-color="#11151E"/>
    </linearGradient>
  </defs>
  <rect width="740" height="360" rx="28" fill="url(#bg)"/>
  <path d="M0 274C94 254 184 244 270 246C356 248 456 290 558 296C626 300 687 289 740 264V360H0V274Z" fill="#0D1119" fill-opacity="0.48"/>
  <g opacity="0.22" stroke="#DDE8F7" stroke-width="1">
    <path d="M70 86H670"/>
    <path d="M70 144H670"/>
    <path d="M70 202H670"/>
    <path d="M70 260H670"/>
    <path d="M220 48V312"/>
    <path d="M370 48V312"/>
    <path d="M520 48V312"/>
  </g>
  <circle cx="420" cy="126" r="38" fill="#F0DFC6"/>
  <path d="M340 226C340 182.922 374.922 148 418 148H422C465.078 148 500 182.922 500 226V262H340V226Z" fill="#E8DDCB"/>
  <path d="M366 170C385 150 455 150 474 170" stroke="#1D2431" stroke-width="16" stroke-linecap="round"/>
  <rect x="300" y="104" width="240" height="152" rx="34" stroke="#D8B36C" stroke-width="4"/>
  <path d="M324 128H516" stroke="#D8B36C" stroke-width="2" stroke-dasharray="8 8"/>
  <path d="M420 104V256" stroke="#D8B36C" stroke-width="2" stroke-dasharray="8 8"/>
</svg>
